<svg xmlns="http://www.w3.org/2000/svg" width="1024" height="1024" viewBox="0 0 1024 1024" role="img" aria-labelledby="title desc">
  <title id="title">Demo canvas 2</title>
  <desc id="desc">A lightweight public demo image for README screenshots.</desc>
  <defs>
    <linearGradient id="bg" x1="0" y1="0" x2="1" y2="1">
      <stop offset="0" stop-color="#e9f1ea"/>
      <stop offset="1" stop-color="#fbf3df"/>
    </linearGradient>
    <filter id="shadow" x="-20%" y="-20%" width="140%">
      <feDropShadow dx="0" dy="30" stdDeviation="28" flood-color="#27453a" flood-opacity="0.18"/>
    </filter>
  </defs>
  <rect width="1024" height="1024" fill="url(#bg)"/>
  <path d="M132 640c166-112 260-104 388-38 128 66 220 78 372-24v312H132V640z" fill="#c9dfd1" opacity="0.62"/>
  <circle cx="818" cy="218" r="142" fill="#d8a85f" opacity="0.42"/>
  <rect x="198" y="148" width="628" height="728" rx="68" fill="#fffdf5" opacity="0.86" filter="url(#shadow)"/>
  <path d="M348 606c84-126 278-128 360-2" fill="none" stroke="#84a98c" stroke-width="48" stroke-linecap="round" opacity="0.55"/>
  <path d="M366 412c0-82 64-148 154-148s154 66 154 148v134c0 76-62 138-154 138s-154-62-154-138V412z" fill="#f7f4eb" stroke="#1f2923" stroke-width="10"/>
  <path d="M674 406h58c54 0 94 39 94 91s-40 91-94 91h-58" fill="none" stroke="#1f2923" stroke-width="22" stroke-linecap="round"/>
  <path d="M420 356c38-22 146-24 202 0" fill="none" stroke="#6f9f91" stroke-width="16" stroke-linecap="round"/>
  <text x="512" y="780" text-anchor="middle" font-family="Arial, sans-serif" font-size="38" font-weight="700" fill="#20251f">Canvas 2</text>
  <text x="512" y="826" text-anchor="middle" font-family="Arial, sans-serif" font-size="24" fill="#617066">Continued from canvas 1</text>
</svg>
