<svg xmlns="http://www.w3.org/2000/svg" width="1024" height="1024" viewBox="0 0 1024 1024" role="img" aria-labelledby="title desc">
  <title id="title">Demo canvas 1</title>
  <desc id="desc">A lightweight public demo image for README screenshots.</desc>
  <defs>
    <linearGradient id="bg" x1="0" y1="0" x2="1" y2="1">
      <stop offset="0" stop-color="#f6ead6"/>
      <stop offset="1" stop-color="#f9f5ec"/>
    </linearGradient>
    <filter id="shadow" x="-20%" y="-20%" width="140%" height="140%">
      <feDropShadow dx="0" dy="28" stdDeviation="26" flood-color="#5d4a2f" flood-opacity="0.18"/>
    </filter>
  </defs>
  <rect width="1024" height="1024" fill="url(#bg)"/>
  <circle cx="230" cy="220" r="118" fill="#e8c47f" opacity="0.48"/>
  <circle cx="800" cy="790" r="160" fill="#b6d5c5" opacity="0.44"/>
  <rect x="196" y="158" width="632" height="708" rx="64" fill="#fffaf0" opacity="0.82" filter="url(#shadow)"/>
  <ellipse cx="512" cy="650" rx="190" ry="44" fill="#d6c0a0" opacity="0.34"/>
  <path d="M358 410c0-82 64-148 154-148s154 66 154 148v134c0 76-62 138-154 138s-154-62-154-138V410z" fill="#f8f4eb" stroke="#2a2b25" stroke-width="10"/>
  <path d="M666 404h58c54 0 94 39 94 91s-40 91-94 91h-58" fill="none" stroke="#2a2b25" stroke-width="22" stroke-linecap="round"/>
  <path d="M408 364c42-30 158-30 208 0" fill="none" stroke="#d9a85f" stroke-width="16" stroke-linecap="round"/>
  <text x="512" y="780" text-anchor="middle" font-family="Arial, sans-serif" font-size="38" font-weight="700" fill="#23251f">Canvas 1</text>
  <text x="512" y="826" text-anchor="middle" font-family="Arial, sans-serif" font-size="24" fill="#697067">Base product poster</text>
</svg>
